<?xml version="1.0" encoding="UTF-8" standalone="no"?>
<svg
   version="1.1"
   x="0px"
   y="0px"
   viewBox="0 0 108 108"
   id="svg10"
   sodipodi:docname="icon.svg"
   width="108"
   height="108"
   inkscape:version="1.1.1 (3bf5ae0d25, 2021-09-20)"
   inkscape:export-filename="/home/mischka/projects/convert-office-images/web/public/icon-512.png"
   inkscape:export-xdpi="327.67999"
   inkscape:export-ydpi="327.67999"
   xmlns:inkscape="http://www.inkscape.org/namespaces/inkscape"
   xmlns:sodipodi="http://sodipodi.sourceforge.net/DTD/sodipodi-0.dtd"
   xmlns="http://www.w3.org/2000/svg"
   xmlns:svg="http://www.w3.org/2000/svg">
  <defs
     id="defs14" />
  <sodipodi:namedview
     id="namedview12"
     pagecolor="#185abd"
     bordercolor="#666666"
     borderopacity="1.0"
     inkscape:pageshadow="2"
     inkscape:pageopacity="0"
     inkscape:pagecheckerboard="true"
     showgrid="false"
     fit-margin-left="0"
     fit-margin-right="0"
     fit-margin-top="0"
     fit-margin-bottom="0"
     inkscape:zoom="6.664"
     inkscape:cx="57.247899"
     inkscape:cy="55.822329"
     inkscape:window-width="1920"
     inkscape:window-height="1011"
     inkscape:window-x="1920"
     inkscape:window-y="32"
     inkscape:window-maximized="1"
     inkscape:current-layer="layer1"
     lock-margins="true" />
  <g
     inkscape:groupmode="layer"
     id="layer1"
     inkscape:label="Background">
    <rect
       style="fill:#185abd;fill-opacity:1;stroke-width:1.4134"
       id="rect1008"
       width="108"
       height="108"
       x="0"
       y="0" />
  </g>
  <g
     inkscape:groupmode="layer"
     id="layer2"
     inkscape:label="Foreground">
    <g
       transform="translate(4,-948.36219)"
       id="g4">
      <path
         style="color:#000000;text-indent:0;text-transform:none;direction:ltr;baseline-shift:baseline;fill:#ffffff;fill-opacity:1;enable-background:accumulate"
         d="m 18,958.36219 c -1.1287,0.02 -1.9943,1.0331 -2,2 v 84.00001 c 10e-5,1.0472 0.9528,1.9999 2,2 h 50 c 0.522,0 1.0392,-0.2225 1.4062,-0.5937 l 14,-14 c 0.3713,-0.3671 0.5896,-0.8843 0.5938,-1.4063 v -70 c -1e-4,-1.0472 -0.9528,-1.9999 -2,-2 H 18 Z m 2,4 h 60 v 66.00001 H 68 c -1.0815,0.011 -2.0037,1.0001 -2,2 v 12 H 20 v -80 z m 48.9688,14.9688 c -0.5265,0.012 -1.0444,0.2426 -1.4063,0.625 l -13.5937,13.5937 v -7.1562 c 0.024,-1.1345 -1.0908,-2.1556 -2.2188,-2.0313 -0.9827,0.108 -1.8025,1.0429 -1.7812,2.0313 v 12 c 10e-5,1.0472 0.9528,1.9999 2,2 h 12 c 1.0565,0.015 2.0312,-0.9432 2.0312,-2 0,-1.0567 -0.9747,-2.0149 -2.0312,-2 h -7.1876 l 13.5938,-13.5938 c 0.5926,-0.5475 0.8031,-1.471 0.5,-2.2187 -0.3031,-0.7477 -1.0996,-1.2697 -1.9062,-1.25 z m -33,21.0625 c -1.2882,0.014 -2.0787,1.0415 -2.0938,2.09371 0.049,1.0473 1.0465,1.9556 2.0938,1.9063 h 7.1562 l -13.5625,13.5625 c -0.7694,0.7305 -0.7773,2.1205 -0.031,2.875 0.7461,0.7543 2.1049,0.7296 2.8438,-0.031 l 13.5938,-13.5938 v 7.1875 c -0.015,1.0567 0.9432,2.0313 2,2.0313 1.0567,0 2.0149,-0.9746 2,-2.0313 v -12 c -2e-4,-1.04711 -0.9529,-1.99991 -2,-2.00001 h -12 z M 70,1032.3622 h 7.1562 L 70,1039.5185 Z"
         fill="#000000"
         fill-opacity="1"
         stroke="none"
         marker="none"
         visibility="visible"
         display="inline"
         overflow="visible"
         id="path2" />
    </g>
  </g>
</svg>
